<svg width="40" height="36" viewBox="0 0 40 36" fill="none" xmlns="http://www.w3.org/2000/svg">
<path d="M7.3776 30.6011L4.56885 2.25H35.4313L32.6188 30.5966L19.9813 33.75L7.3776 30.6011Z" fill="#E44F26"/>
<path d="M20 31.3402L30.2125 28.7921L32.615 4.5686H20V31.3402Z" fill="#F1662A"/>
<path d="M20 15.0829H14.8875L14.535 11.5222H20V8.04486H10.3125L10.405 8.97861L11.3538 18.5602H20V15.0829V15.0829ZM20 24.1132L19.9825 24.1177L15.68 23.0726L15.405 20.2995H11.5262L12.0675 25.758L19.9825 27.7357L20 27.7312V24.1132Z" fill="#EBEBEB"/>
<path d="M19.9863 15.0829V18.5602H24.7438L24.2963 23.0704L19.9863 24.1166V27.7346L27.9076 25.758L27.9651 25.1707L28.8726 16.0166L28.9676 15.0829H19.9863V15.0829ZM19.9863 8.04486V11.5222H29.3188L29.3963 10.7415L29.5726 8.97861L29.6651 8.04486H19.9863V8.04486Z" fill="white"/>
</svg>
